<?xml version="1.0" standalone="no"?>
<!DOCTYPE svg PUBLIC "-//W3C//DTD SVG 20010904//EN"
 "http://www.w3.org/TR/2001/REC-SVG-20010904/DTD/svg10.dtd">
<svg version="1.0" xmlns="http://www.w3.org/2000/svg"
 width="1920.000000pt" height="1200.000000pt" viewBox="0 0 1920.000000 1200.000000"
 preserveAspectRatio="xMidYMid meet">

<g transform="translate(0.000000,1200.000000) scale(0.100000,-0.100000)"
fill="#000000" stroke="none">
<path d="M0 6000 l0 -6000 9600 0 9600 0 0 6000 0 6000 -9600 0 -9600 0 0
-6000z m13300 4720 c16 -9 18 -15 9 -38 -17 -47 -33 -76 -59 -107 -14 -17 -38
-48 -55 -69 -53 -68 -126 -160 -146 -186 -12 -14 -26 -36 -32 -50 -6 -14 -17
-33 -25 -42 -8 -10 -13 -30 -10 -45 2 -19 -3 -36 -14 -48 -28 -29 -33 -63 -13
-85 16 -18 15 -19 -12 -33 -15 -8 -39 -18 -53 -22 -14 -3 -62 -20 -108 -37
-66 -25 -86 -37 -98 -60 -9 -17 -14 -32 -12 -34 2 -2 31 1 64 6 74 12 104 13
104 1 0 -14 -93 -101 -108 -101 -7 0 -11 -4 -7 -9 3 -5 1 -12 -5 -16 -5 -3
-10 -16 -10 -28 0 -13 3 -17 8 -11 15 21 40 23 45 3 5 -20 -49 -83 -82 -94 -9
-3 -25 -20 -37 -38 -11 -18 -26 -31 -32 -30 -7 2 -12 -6 -12 -17 0 -13 -5 -18
-16 -13 -10 4 -15 1 -13 -8 2 -8 -16 -34 -40 -59 -23 -25 -54 -62 -67 -82 -13
-21 -31 -38 -40 -38 -10 0 -14 -6 -11 -14 3 -8 -3 -22 -14 -32 -10 -9 -19 -15
-20 -13 -4 20 -8 37 -14 50 -3 9 1 23 10 33 9 9 15 28 13 43 l-3 27 -15 -30
c-8 -16 -23 -41 -33 -57 -10 -15 -23 -59 -29 -99 -9 -66 -38 -128 -60 -128 -4
0 -8 -9 -8 -20 0 -11 -7 -23 -15 -26 -9 -4 -32 -31 -51 -61 -20 -29 -38 -52
-40 -50 -3 2 3 39 11 83 14 73 27 124 91 356 40 148 175 455 195 443 4 -3 11
0 15 6 4 8 3 9 -4 5 -24 -15 -10 15 69 145 67 112 193 293 233 335 6 6 30 34
53 61 110 130 291 283 301 254 3 -8 7 -9 11 -3 8 14 143 91 159 91 7 1 22 -4
32 -9z m1006 -127 c8 -11 13 -46 14 -90 0 -58 3 -73 15 -73 8 0 15 -3 15 -7
-2 -19 -26 -103 -33 -109 -4 -4 -7 -15 -7 -25 0 -10 -6 -33 -14 -51 -44 -104
-64 -158 -55 -153 23 15 4 -16 -51 -80 -33 -38 -94 -113 -137 -165 -92 -113
-248 -269 -284 -283 -10 -4 -9 -6 3 -6 9 -1 20 4 23 9 8 13 105 61 105 51 0
-10 -203 -133 -295 -179 -154 -78 -319 -155 -384 -179 -158 -60 -284 -102
-266 -88 11 8 25 18 30 22 6 5 81 51 167 103 222 133 276 175 347 270 65 85
155 229 149 235 -2 2 -75 -23 -162 -56 -87 -33 -160 -59 -162 -57 -1 2 47 26
109 53 289 126 257 105 319 208 31 51 77 133 103 182 55 104 56 105 115 130
79 34 110 59 146 120 63 108 99 161 127 191 15 16 27 32 27 36 0 14 23 8 36
-9z m468 -17 c28 -12 35 -21 41 -54 7 -44 50 -111 57 -90 3 7 4 -17 3 -54 0
-37 -4 -70 -8 -74 -3 -4 -2 -14 3 -24 5 -10 7 -20 4 -23 -3 -2 -7 -40 -10 -82
-2 -43 -7 -82 -11 -87 -3 -6 -7 -25 -8 -42 -2 -34 -17 -68 -88 -195 -26 -46
-47 -89 -47 -96 0 -6 -3 -15 -7 -19 -4 -4 -6 -21 -5 -39 2 -25 -8 -49 -47
-105 -180 -261 -381 -460 -651 -644 -123 -83 -409 -248 -507 -292 -23 -10 -40
-22 -37 -27 2 -4 -9 -15 -25 -24 -36 -18 -45 -19 -35 -3 4 7 3 8 -4 4 -7 -4
-12 -14 -12 -23 0 -13 -3 -13 -15 -3 -13 11 -15 10 -10 -1 3 -9 -9 -20 -35
-31 -22 -9 -40 -12 -40 -7 0 5 -7 9 -15 9 -9 0 -12 -6 -9 -15 4 -10 0 -16 -12
-17 -43 -4 -60 -5 -71 -7 -7 0 -13 -7 -13 -15 0 -15 -54 -40 -111 -50 -19 -3
-45 -15 -57 -27 -12 -11 -22 -15 -22 -9 0 6 -5 8 -12 4 -7 -4 -37 -9 -67 -10
-31 -2 -65 -8 -76 -13 -20 -10 -244 -51 -279 -51 -15 0 -16 2 -6 15 11 13 15
13 21 3 7 -10 9 -10 9 0 0 7 13 12 29 12 58 0 344 60 383 81 10 5 24 9 32 9 9
0 24 10 35 21 12 13 26 19 36 15 39 -15 402 196 630 365 279 208 464 405 611
649 120 199 225 435 268 605 9 33 31 107 51 165 20 58 45 140 55 182 23 88 37
128 45 128 3 0 21 -6 39 -14z m979 -78 c-4 -31 -3 -32 11 -14 9 11 19 15 28
10 7 -5 15 -9 18 -9 28 -2 74 -81 94 -158 6 -25 8 -26 22 -12 17 17 34 12 34
-11 0 -36 42 -110 75 -133 48 -33 72 -77 113 -211 28 -92 72 -362 87 -535 22
-250 37 -639 30 -760 -11 -192 -62 -450 -137 -693 l-22 -72 23 -16 c20 -15 22
-22 16 -63 -10 -66 -41 -133 -74 -156 -51 -36 -99 -83 -135 -130 -41 -52 -41
-52 -22 13 8 26 22 81 31 124 9 42 23 88 31 103 29 56 67 263 62 340 -1 23 2
47 7 55 13 20 10 366 -4 525 -7 72 -21 198 -32 280 -11 83 -29 224 -40 315
-44 367 -85 563 -165 798 -35 103 -100 260 -113 275 -4 4 -16 -8 -27 -28 -10
-19 -22 -35 -26 -35 -11 0 -11 3 14 57 11 26 20 57 19 69 -3 35 17 74 39 74
11 0 23 7 26 15 11 27 21 16 17 -17z m-3963 -12 c0 -13 -60 -80 -234 -265 -28
-30 -51 -59 -51 -64 0 -5 -8 -14 -17 -21 -10 -7 -18 -21 -18 -30 0 -9 -11 -29
-24 -43 -30 -32 -24 -48 10 -28 13 8 36 22 50 31 19 12 23 18 14 28 -8 10 -5
15 11 19 11 3 23 15 26 26 3 12 14 21 24 21 11 0 19 6 19 13 0 8 17 22 37 33
21 10 44 25 52 32 9 8 28 12 50 10 25 -3 40 0 48 11 6 9 15 12 19 8 5 -4 3
-16 -4 -25 -7 -9 -16 -26 -21 -37 -5 -12 -16 -27 -25 -34 -9 -7 -16 -21 -16
-31 0 -10 -7 -23 -15 -30 -8 -6 -14 -19 -13 -28 3 -41 -5 -59 -37 -82 -20 -14
-49 -37 -65 -52 -26 -25 -27 -28 -10 -28 11 0 44 14 73 30 30 17 61 30 69 30
9 0 19 6 22 13 3 6 3 1 0 -11 -6 -25 -18 -39 -81 -104 -25 -26 -46 -38 -65
-38 -15 0 -28 -4 -28 -9 0 -5 8 -7 19 -4 29 8 37 -17 11 -37 -13 -10 -20 -22
-16 -29 5 -7 -4 -11 -28 -11 -23 0 -39 6 -45 18 -6 9 -11 12 -11 5 0 -6 -10
-14 -22 -16 l-23 -4 23 -8 c28 -9 28 -19 -2 -42 -13 -10 -26 -29 -30 -41 -4
-12 -12 -22 -17 -22 -5 0 -9 -11 -9 -24 0 -25 -15 -43 -23 -29 -2 5 -2 2 0 -5
1 -7 -2 -23 -8 -35 -9 -16 -9 -22 0 -25 7 -2 -5 -19 -26 -38 -173 -156 -301
-221 -646 -328 -163 -50 -326 -89 -477 -111 -58 -9 -108 -19 -111 -23 -4 -4
-12 -30 -17 -57 -6 -28 -14 -59 -17 -70 -3 -11 1 -6 11 10 9 17 26 37 36 47
14 12 16 18 6 22 -7 3 -3 4 10 2 12 -2 20 0 16 5 -3 5 3 9 13 9 15 0 16 2 3
10 -11 7 -6 10 23 11 20 1 43 2 50 3 15 1 12 -36 -10 -119 -9 -33 -17 -70 -18
-82 -1 -13 -5 -26 -8 -30 -4 -3 -7 -12 -7 -20 0 -16 27 -18 32 -2 2 6 13 12
24 13 23 1 96 55 89 65 -2 4 0 13 6 21 7 12 9 11 9 -4 0 -18 1 -18 20 -1 23
21 28 89 8 101 -9 6 -5 11 12 16 20 6 18 7 -12 5 -28 -2 -35 0 -27 9 8 9 4 11
-13 7 -17 -3 -19 -2 -9 5 11 8 10 11 -5 14 -10 2 19 8 66 12 137 12 424 57
519 82 30 7 56 12 58 10 2 -2 -19 -18 -48 -36 -28 -17 -70 -48 -93 -69 -23
-21 -88 -80 -146 -132 -58 -51 -111 -102 -118 -111 -10 -14 -17 -16 -33 -8
-16 9 -19 7 -19 -8 0 -10 -3 -22 -7 -28 -5 -5 0 -1 10 9 9 11 17 15 17 11 0
-5 -43 -56 -95 -114 -69 -77 -119 -146 -186 -260 -51 -85 -106 -177 -123 -205
-16 -27 -83 -153 -148 -280 -64 -126 -118 -227 -118 -223 0 3 20 57 45 119 41
102 106 232 225 452 23 43 39 81 36 84 -8 9 -60 -42 -93 -91 -15 -23 -30 -43
-33 -46 -3 -3 -14 -21 -24 -40 -11 -19 -22 -37 -26 -40 -4 -3 -26 -36 -49 -75
-55 -91 -147 -237 -158 -250 -4 -5 -14 -21 -21 -35 -23 -44 -49 -74 -49 -56 0
9 3 16 7 16 4 0 6 10 5 23 -1 12 -3 22 -4 22 -1 0 -4 13 -6 28 -3 23 -1 27 12
23 14 -6 14 -4 2 10 -10 12 -11 18 -3 21 7 2 10 12 7 22 -3 10 0 22 6 25 16
10 13 37 -6 51 -21 15 -7 38 19 32 15 -4 17 -3 8 8 -8 10 -6 17 12 29 18 13
19 16 5 16 -9 0 -16 3 -16 8 3 20 -3 21 -31 7 -17 -9 -35 -13 -40 -10 -13 8
-38 -87 -28 -107 13 -27 9 -64 -10 -89 -10 -13 -24 -36 -31 -50 -7 -15 -24
-32 -37 -38 -28 -12 -31 -26 -8 -35 15 -6 15 -9 -5 -29 -11 -13 -21 -29 -21
-35 0 -7 -3 -12 -7 -12 -5 0 -16 -20 -26 -45 -11 -25 -23 -45 -29 -45 -5 0 -7
-4 -3 -9 3 -5 1 -12 -4 -15 -11 -7 -21 17 -21 54 0 16 -4 31 -8 34 -10 6 -46
-23 -60 -49 -9 -16 -11 -17 -12 -4 0 25 -90 37 -102 15 -18 -32 -58 -69 -59
-55 -3 43 5 77 26 105 15 19 22 39 18 52 -7 28 -31 35 -38 11 -4 -11 -12 -19
-18 -18 -25 3 -36 -2 -40 -18 -3 -10 -5 16 -6 58 -1 66 8 136 35 279 13 67
-15 17 -37 -65 -38 -147 -35 -421 7 -740 8 -60 19 -148 24 -195 24 -220 38
-332 44 -337 3 -4 7 29 7 73 1 43 4 66 7 49 5 -30 5 -30 12 -5 5 20 9 10 19
-45 33 -183 86 -342 191 -560 34 -71 76 -159 92 -195 41 -87 59 -114 68 -100
7 12 109 -176 153 -283 44 -107 66 -208 69 -317 l3 -100 22 67 c13 37 23 77
23 88 0 55 17 24 61 -113 57 -173 60 -202 23 -231 -15 -11 -30 -18 -35 -15 -5
3 -31 -2 -58 -11 -75 -25 -134 -22 -180 8 -51 34 -83 82 -164 243 -36 71 -119
211 -185 310 -198 298 -279 454 -388 747 -94 252 -131 405 -169 688 -57 436
-79 770 -55 833 27 72 121 120 258 133 52 5 62 9 62 25 0 10 10 22 22 27 22 8
22 8 3 14 -79 22 -145 14 -227 -28 -43 -22 -47 -23 -60 -8 -9 12 -9 15 0 9 6
-4 12 -2 12 3 0 17 -9 13 -42 -14 -16 -14 -27 -25 -24 -25 3 0 -3 -9 -14 -20
-25 -25 -37 -25 -47 -2 -8 15 -8 24 -4 57 1 6 6 3 12 -5 8 -12 9 -10 4 8 -8
28 22 89 74 150 20 24 43 53 51 65 14 19 14 20 -10 7 -14 -7 -35 -22 -48 -34
-21 -19 -22 -19 -16 -2 6 15 4 18 -7 12 -8 -4 -3 2 10 13 31 28 67 36 98 22
21 -10 24 -16 18 -41 -6 -27 -4 -30 18 -30 13 0 47 4 76 10 49 9 115 4 107 -9
-2 -3 7 -7 20 -7 13 -1 41 -14 61 -30 20 -15 33 -22 29 -16 -5 8 -2 10 8 6 9
-3 16 -10 16 -15 0 -5 6 -9 14 -9 7 0 24 -10 37 -23 13 -12 36 -29 51 -36 15
-8 25 -18 22 -23 -3 -4 4 -8 15 -8 10 0 21 -4 23 -8 7 -17 114 -62 147 -62 36
1 36 1 68 83 32 84 41 113 97 327 56 212 104 375 191 645 46 143 107 334 135
425 107 345 212 627 256 687 13 17 24 37 24 43 0 6 5 8 10 5 6 -3 10 -2 10 3
0 6 6 12 13 15 9 3 11 -6 9 -34 l-4 -38 37 6 c47 8 65 -12 65 -72 0 -22 7 -51
16 -63 15 -21 15 -27 -1 -75 -24 -76 -125 -277 -141 -284 -9 -3 -12 -13 -9
-23 3 -10 1 -21 -4 -24 -5 -4 -17 -29 -26 -56 -9 -28 -26 -57 -38 -65 -12 -8
-18 -15 -15 -15 6 0 -9 -39 -67 -164 -25 -57 -45 -109 -42 -112 1 -2 23 10 47
26 49 33 70 39 50 15 -11 -13 -10 -14 6 -8 10 3 33 15 49 25 17 10 55 30 85
44 254 118 369 224 585 539 105 153 235 308 329 394 16 14 41 37 56 51 15 14
54 48 86 75 32 28 77 66 99 86 22 19 74 57 115 83 41 26 86 56 100 66 31 23
30 23 30 6z m3900 -192 c-13 -33 -13 -54 0 -34 5 8 10 10 10 5 0 -6 -6 -17
-12 -24 -11 -11 -10 -12 1 -6 11 6 13 3 9 -13 -4 -12 -2 -20 3 -16 5 3 10 -1
11 -8 0 -7 3 -26 5 -43 2 -16 4 -48 4 -70 0 -22 9 -62 19 -90 10 -27 21 -59
23 -70 2 -11 9 -19 15 -17 7 1 12 -5 12 -14 0 -8 4 -13 8 -10 4 2 7 -12 5 -32
-2 -27 -1 -32 5 -18 8 18 9 18 15 2 4 -10 4 -29 1 -42 -3 -13 -2 -30 4 -37 5
-6 12 -37 16 -67 3 -30 9 -75 13 -100 5 -41 5 -43 -11 -28 -9 9 -16 23 -16 32
0 22 -17 28 -25 9 -3 -10 -1 -19 4 -21 6 -2 11 -11 11 -19 0 -13 -3 -13 -16
-2 -13 11 -14 9 -9 -17 5 -24 4 -26 -5 -11 -6 9 -8 26 -5 37 3 10 1 27 -4 37
-15 26 -67 143 -116 258 -63 147 -85 194 -94 199 -4 3 -44 -43 -89 -102 -82
-109 -228 -270 -197 -218 10 16 57 79 105 140 88 112 177 243 221 326 26 48
34 61 62 91 23 26 28 24 17 -7z m-3835 -4 c3 -6 -4 -10 -17 -10 -18 0 -20 2
-8 10 19 12 18 12 25 0z m-3607 -162 c4 -36 -33 -71 -60 -57 -28 15 -32 36
-13 65 23 35 69 31 73 -8z m4814 21 c20 -11 20 -11 -3 -32 -22 -21 -80 -29
-96 -14 -7 7 26 35 57 49 21 9 19 9 42 -3z m-618 -51 c-11 -36 -36 -69 -48
-65 -19 6 -17 32 4 60 27 34 54 37 44 5z m-3384 -34 c0 -8 -9 -14 -21 -14 -11
0 -17 -5 -14 -10 4 -6 11 -8 16 -5 5 4 9 -1 9 -10 0 -9 -4 -14 -9 -10 -5 3
-22 -19 -37 -49 -15 -30 -31 -53 -36 -50 -4 3 -5 -1 -3 -9 3 -7 -3 -22 -15
-32 -11 -10 -20 -23 -20 -29 0 -6 -14 -29 -30 -50 -16 -21 -27 -43 -24 -47 3
-5 -2 -9 -11 -9 -9 0 -15 -6 -14 -12 3 -18 -16 -59 -38 -83 -10 -11 -41 -54
-69 -95 -28 -41 -76 -111 -106 -155 -141 -207 -298 -496 -298 -549 0 -13 -5
-26 -12 -28 -8 -3 -8 -9 -1 -22 7 -13 13 -15 17 -7 4 6 11 11 17 11 5 0 -3
-18 -17 -40 -16 -23 -33 -39 -40 -36 -8 3 -11 0 -7 -10 3 -8 -22 -56 -56 -110
-34 -52 -61 -99 -61 -103 0 -5 -6 -14 -13 -20 -17 -14 -138 -206 -141 -223 -3
-19 -25 -55 -26 -41 0 6 5 15 10 18 6 4 8 10 6 14 -16 25 256 738 285 749 5 2
9 10 9 18 0 8 6 14 13 15 9 0 9 2 0 5 -12 5 16 63 44 92 7 7 14 18 14 23 1 5
3 14 4 19 1 6 3 18 5 28 1 11 3 13 7 4 5 -13 75 97 88 138 3 11 10 20 14 20 4
0 15 17 24 39 40 91 267 438 367 563 61 75 103 110 128 105 14 -3 22 1 22 10
0 8 5 11 10 8 6 -3 10 -13 10 -21z m3730 -309 c-7 -9 -15 -13 -17 -11 -6 6 20
36 26 30 2 -2 -2 -10 -9 -19z m4848 -374 c5 -29 -16 -53 -42 -49 -25 4 -31 25
-17 61 9 22 14 25 33 18 13 -4 24 -18 26 -30z m-1781 -68 c-3 -10 -5 -2 -5 17
0 19 2 27 5 18 2 -10 2 -26 0 -35z m0 -65 c-3 -7 -5 -2 -5 12 0 14 2 19 5 13
2 -7 2 -19 0 -25z m-30 -38 c-4 -16 -3 -38 1 -47 5 -13 9 -5 13 27 6 43 6 42
7 -18 1 -35 -1 -61 -5 -59 -5 3 -9 -39 -10 -92 -3 -93 -27 -288 -37 -299 -3
-2 -3 17 -1 44 2 27 7 130 10 230 4 171 11 244 23 244 2 0 2 -13 -1 -30z
m-2692 -192 c8 -83 9 -105 5 -168 -2 -25 0 -61 4 -80 l8 -35 -18 25 c-23 30
-39 131 -37 232 1 131 25 147 38 26z m1277 -29 c-6 -9 -9 -33 -5 -52 6 -39
-10 -77 -33 -77 -14 0 -15 10 -9 73 8 79 31 122 48 91 7 -11 6 -23 -1 -35z
m-4648 -33 c-3 -15 -8 -25 -11 -23 -2 3 -1 17 3 31 3 15 8 25 11 23 2 -3 1
-17 -3 -31z m3881 -45 c-6 -5 -25 10 -25 20 0 5 6 4 14 -3 8 -7 12 -15 11 -17z
m-3921 -90 c-33 -108 -44 -115 -14 -10 32 109 32 110 37 105 3 -3 -7 -46 -23
-95z m3951 69 c3 -6 -1 -7 -9 -4 -18 7 -21 14 -7 14 6 0 13 -4 16 -10z m-935
-60 c-15 -27 -19 -25 -15 8 2 15 4 32 5 37 0 6 5 2 11 -7 7 -12 6 -24 -1 -38z
m-25 -16 c0 -20 -20 -45 -80 -100 -71 -66 -84 -74 -120 -74 l-40 0 42 28 c23
15 61 46 85 67 23 22 46 39 50 38 5 -2 8 2 8 9 0 12 39 58 50 58 3 0 6 -12 5
-26z m495 -94 c0 -5 -4 -10 -9 -10 -6 0 -13 5 -16 10 -3 6 1 10 9 10 9 0 16
-4 16 -10z m-3546 -114 c-15 -58 -30 -103 -32 -101 -2 2 8 51 24 109 15 59 29
104 32 101 3 -3 -8 -52 -24 -109z m1269 37 c20 -19 22 -39 3 -46 -9 -4 -12
-15 -9 -32 10 -49 -60 -88 -95 -53 -10 10 -15 10 -22 -2 -13 -22 -24 32 -14
78 4 20 7 40 6 43 -1 4 13 14 31 23 35 18 72 13 100 -11z m1762 -23 c56 -23
174 -69 203 -80 18 -7 31 -15 28 -17 -7 -8 -226 59 -226 68 0 5 -6 9 -12 9 -7
0 -31 9 -53 20 l-40 19 40 -5 c22 -3 49 -9 60 -14z m2025 5 c-7 -9 -15 -13
-17 -11 -7 7 7 26 19 26 6 0 6 -6 -2 -15z m-35 -14 c3 -5 1 -12 -5 -16 -5 -3
-10 1 -10 9 0 18 6 21 15 7z m-41 -36 c-4 -8 -10 -12 -15 -9 -5 3 -9 0 -9 -5
0 -6 -8 -11 -17 -11 -15 1 -14 4 6 20 28 24 43 26 35 5z m-3961 -146 c43 -64
44 -66 17 -48 -34 22 -69 94 -75 154 l-6 50 21 -61 c11 -33 30 -76 43 -95z
m3433 126 c-15 -23 -15 -24 1 -18 31 12 3 -16 -42 -42 -76 -45 -80 -46 -335
-66 -149 -11 -392 -7 -500 10 -38 5 -44 10 -42 26 2 11 6 22 7 24 7 6 76 -10
71 -17 -2 -4 78 -8 177 -9 162 -2 178 -1 142 10 -37 13 -30 13 75 9 146 -6
230 8 355 57 55 21 102 39 104 40 2 0 -4 -10 -13 -24z m-686 -15 c-14 -11 -31
-17 -38 -15 -8 3 -18 5 -23 5 -5 0 -9 4 -9 9 0 11 24 18 65 20 l30 1 -25 -20z
m620 -155 c0 -23 -71 -68 -94 -59 -25 9 -19 20 17 34 17 6 39 16 47 20 18 10
30 12 30 5z m667 -1 c-3 -3 -12 -4 -19 -1 -8 3 -5 6 6 6 11 1 17 -2 13 -5z
m-2677 -24 c0 -5 -4 -10 -10 -10 -5 0 -10 5 -10 10 0 6 5 10 10 10 6 0 10 -4
10 -10z m73 3 c-7 -2 -19 -2 -25 0 -7 3 -2 5 12 5 14 0 19 -2 13 -5z m917 -37
c0 -5 -8 -2 -17 5 -15 12 -16 12 -10 -3 3 -10 3 -18 -2 -18 -16 0 -19 13 -9
36 10 22 12 22 24 6 7 -9 14 -21 14 -26z m93 29 c22 -16 19 -43 -5 -59 -13 -8
-22 -6 -37 8 -26 23 -27 42 -3 55 22 13 23 13 45 -4z m1602 5 c-3 -5 -13 -10
-21 -10 -8 0 -14 5 -14 10 0 6 9 10 21 10 11 0 17 -4 14 -10z m2769 -11 c-8
-14 -24 -10 -24 6 0 9 6 12 15 9 8 -4 12 -10 9 -15z m-5609 1 c-60 -4 -168 -7
-240 -7 l-130 1 105 5 c58 4 166 7 240 7 l135 1 -110 -7z m915 0 c0 -5 -4 -10
-10 -10 -5 0 -10 5 -10 10 0 6 5 10 10 10 6 0 10 -4 10 -10z m407 -25 c-6 -7
-19 -10 -27 -7 -12 5 -12 7 3 10 9 2 15 8 12 13 -3 5 1 6 9 3 12 -5 13 -9 3
-19z m1536 1 c11 -16 2 -99 -11 -104 -15 -5 -16 -32 -2 -32 6 0 24 7 40 15 17
9 30 12 30 8 0 -5 4 -2 9 6 8 12 12 13 25 1 17 -13 15 -15 81 45 13 11 34 31
49 44 39 35 32 12 -15 -44 -60 -75 -63 -78 -81 -107 -22 -34 -23 -54 -2 -62
12 -5 15 -2 10 10 -7 19 18 66 45 83 16 9 21 9 25 -4 4 -8 13 -15 21 -15 8 0
12 -4 8 -9 -3 -5 12 -15 32 -22 21 -6 47 -18 58 -24 14 -9 85 -13 235 -14 133
-2 217 -6 221 -12 3 -6 9 0 13 13 5 19 8 21 16 8 11 -16 13 -14 55 45 12 17
12 13 0 -24 -18 -52 -14 -60 22 -53 16 2 26 2 23 -1 -4 -4 -22 -9 -40 -11 -19
-3 -45 -8 -57 -12 -14 -4 -23 -2 -23 5 0 6 -10 11 -22 10 -22 0 -22 -1 -3 -9
11 -5 17 -9 12 -9 -4 -1 -87 -10 -185 -21 -316 -35 -611 -53 -890 -54 -228 -1
-274 1 -282 13 -7 12 -13 13 -35 3 -28 -13 -170 -7 -190 8 -5 4 -44 3 -85 -2
-41 -5 -86 -7 -100 -4 -14 3 -90 7 -170 10 l-145 5 83 -13 c46 -8 86 -16 89
-20 4 -3 -70 -6 -164 -6 -166 0 -171 -1 -185 -22 -8 -13 -18 -32 -22 -44 -3
-12 -24 -40 -45 -63 -28 -30 -46 -41 -67 -41 -34 0 -54 16 -54 42 0 31 -69 47
-207 47 l-73 1 5 36 c2 20 7 45 10 55 7 22 5 22 -245 44 -188 16 -324 34 -316
42 3 3 73 4 157 4 84 -1 151 1 148 4 -3 3 -48 8 -100 11 -124 7 -137 25 -67
94 l42 41 15 -36 c25 -57 41 -45 39 31 -1 55 2 69 17 80 13 10 22 11 32 3 10
-9 15 -6 22 12 7 16 10 19 10 7 1 -13 15 -18 69 -23 94 -9 105 -12 42 -14 -41
-1 -51 -4 -40 -12 19 -12 162 -1 172 14 4 7 32 7 88 1 63 -8 83 -7 87 2 8 22
59 27 87 9 13 -9 42 -18 65 -20 33 -3 39 -1 34 12 -5 13 -2 15 13 9 10 -5 39
-13 64 -20 33 -8 45 -16 44 -29 -1 -13 3 -16 16 -12 10 3 21 1 25 -5 3 -5 15
-10 25 -10 13 0 18 -5 13 -16 -4 -12 2 -15 39 -13 48 3 71 -6 65 -24 -2 -7 2
-19 10 -28 10 -12 11 -23 3 -43 -7 -20 -7 -28 3 -31 120 -40 185 -39 205 3 6
14 12 34 12 43 0 10 6 20 13 22 9 4 8 8 -3 16 -13 9 -13 11 2 11 9 0 19 -6 22
-12 5 -10 7 -10 12 0 9 19 38 14 52 -8 9 -15 23 -20 55 -20 l42 1 -27 15 c-32
17 -35 30 -12 62 19 27 38 29 31 3 -3 -13 0 -18 8 -15 7 3 15 -2 18 -10 4 -11
19 -16 47 -16 29 0 40 -4 40 -15 0 -20 24 -19 45 1 8 9 22 13 30 10 8 -3 17
-1 20 4 4 6 18 10 32 10 14 0 41 13 60 30 18 17 38 30 43 30 6 0 9 6 8 13 -4
16 62 22 72 7 6 -9 13 -9 28 -1 11 6 32 11 45 11 13 0 37 12 52 26 22 20 36
25 69 22 26 -2 41 2 41 9 0 6 4 15 9 20 5 5 6 3 2 -4 -4 -7 -3 -13 3 -13 6 0
8 -8 5 -17 -5 -15 -4 -15 4 -4 9 12 17 13 47 4 33 -11 37 -10 44 10 5 12 6 26
4 30 -7 13 71 -4 80 -17z m-3428 -53 c-5 -30 -4 -35 5 -23 6 8 13 11 16 5 2
-6 56 -9 136 -9 107 1 118 0 58 -5 -41 -4 -83 -12 -94 -17 -15 -9 -10 -13 33
-21 34 -7 54 -7 58 0 6 10 65 5 214 -18 35 -5 48 -3 58 9 10 12 17 14 27 5 8
-6 25 -8 39 -5 19 5 25 2 25 -9 0 -9 7 -18 15 -21 8 -4 15 -11 15 -16 0 -14
-268 7 -284 23 -6 5 -37 9 -70 9 -34 0 -99 7 -146 15 -47 9 -107 18 -135 21
-50 5 -125 22 -125 28 0 2 28 1 63 -1 l62 -5 13 36 c17 47 25 46 17 -1z m-181
-13 c4 -5 -11 -4 -35 1 -24 6 -46 13 -49 15 -8 9 74 -8 84 -16z m876 -86 c0
-41 -2 -45 -22 -42 -17 2 -23 10 -25 33 -2 27 0 28 11 13 19 -26 26 -22 26 12
0 17 2 30 5 30 3 0 5 -21 5 -46z m151 -24 c33 -18 21 -30 -30 -30 -49 0 -80
14 -38 17 12 1 23 7 25 13 5 13 18 13 43 0z m169 -20 c-1 -14 -20 -33 -27 -27
-4 5 -1 12 6 16 10 6 5 11 -18 16 -17 4 -29 10 -26 15 5 8 65 -10 65 -20z
m-3548 -32 c-7 -7 -12 -8 -12 -2 0 14 12 26 19 19 2 -3 -1 -11 -7 -17z m971
-148 c-3 -12 -8 -19 -11 -16 -5 6 5 36 12 36 2 0 2 -9 -1 -20z m-898 -50 c-3
-5 -12 -10 -18 -10 -7 0 -6 4 3 10 19 12 23 12 15 0z m-540 -700 c26 -29 13
-83 -27 -111 -40 -29 -62 -16 -66 39 -3 34 2 47 22 67 30 30 47 31 71 5z
m1210 -265 c10 -66 29 -177 44 -246 15 -70 24 -135 20 -145 -7 -18 -7 -18 -14
-1 -5 13 -10 15 -15 7 -4 -6 -16 17 -28 52 -18 56 -30 101 -62 243 -17 77 -24
175 -11 175 7 0 9 9 5 25 -3 14 -3 33 0 42 6 15 8 15 16 3 8 -12 10 -11 11 5
2 34 16 -31 34 -160z m109 166 c4 -5 -3 -7 -14 -4 -23 6 -26 13 -6 13 8 0 17
-4 20 -9z m1623 -13 l42 -10 -39 -52 c-38 -51 -90 -150 -90 -173 0 -9 16 -13
46 -13 46 0 74 15 67 37 -3 7 3 9 17 6 20 -5 37 -44 26 -61 -6 -10 28 -26 77
-38 20 -4 26 -11 22 -22 -3 -8 0 -21 6 -28 9 -11 8 -14 -5 -14 -9 0 -16 -4
-16 -10 0 -5 4 -10 9 -10 12 0 41 -28 41 -39 0 -5 -16 -19 -35 -32 -19 -13
-35 -32 -35 -41 0 -25 11 -22 35 8 14 18 25 23 38 18 10 -3 16 -12 13 -19 -3
-8 4 -11 19 -9 22 2 24 -1 19 -29 -5 -31 -5 -32 9 -9 13 22 15 23 30 7 10 -9
17 -32 17 -52 0 -34 -1 -35 -27 -28 -16 4 -39 7 -52 6 -13 0 -31 5 -40 11 -20
16 -59 38 -67 38 -3 0 1 -11 10 -25 22 -34 9 -31 -38 8 -25 21 -37 38 -32 46
6 9 11 9 22 0 18 -15 31 -4 15 14 -6 8 -22 12 -36 9 -29 -5 -44 21 -27 48 10
17 8 17 -36 4 -72 -22 -132 -46 -132 -53 0 -16 65 -109 103 -149 85 -89 165
-128 288 -142 95 -11 195 2 267 35 77 35 168 131 216 228 l38 77 60 -48 c75
-58 271 -284 327 -377 20 -33 4 35 -35 153 -19 57 -34 108 -34 113 0 19 21 -3
65 -69 51 -75 53 -74 25 18 -23 76 -23 73 -11 66 5 -3 12 10 15 29 4 19 10 35
15 35 4 0 19 21 32 48 25 49 61 87 68 71 1 -6 8 -3 15 5 10 14 19 12 81 -15
39 -17 86 -40 106 -50 19 -10 73 -30 118 -45 76 -25 88 -26 137 -15 29 7 64
21 76 31 28 24 23 24 -33 4 -57 -20 -130 -13 -234 24 -104 37 -181 77 -226
116 -20 17 -49 40 -64 51 -16 11 -41 30 -56 43 -15 12 -33 22 -40 22 -7 0 -9
3 -6 7 4 3 -3 14 -16 22 -36 24 -130 111 -126 116 3 2 38 5 79 6 53 1 94 -5
139 -19 36 -12 66 -20 68 -19 1 2 -27 22 -64 46 -36 23 -61 46 -57 51 12 10
100 40 146 50 23 4 85 0 165 -12 105 -15 371 -38 495 -42 24 -1 28 -6 34 -42
3 -22 4 -94 2 -158 -2 -99 -1 -113 9 -89 7 17 12 79 13 155 0 74 4 128 10 130
8 3 244 -3 540 -14 l85 -3 5 -131 c6 -145 7 -149 87 -230 54 -55 137 -99 203
-108 44 -6 43 -6 -35 33 -62 31 -99 59 -164 124 l-83 85 7 116 c4 63 11 113
16 110 5 -3 53 -7 106 -10 54 -2 128 -9 165 -15 57 -9 70 -8 92 6 28 19 46 13
46 -15 0 -14 11 -22 40 -30 45 -12 54 -9 89 32 30 36 37 30 20 -16 -12 -33
-11 -38 9 -59 22 -21 23 -21 70 -5 66 24 39 5 -125 -88 -73 -42 -133 -78 -133
-81 0 -9 244 124 422 230 178 107 194 113 249 90 14 -6 44 -17 67 -24 30 -9
39 -15 30 -21 -8 -6 -5 -7 10 -3 13 4 35 4 50 0 33 -8 -31 -40 -488 -245 -113
-51 -230 -101 -260 -112 -75 -27 -183 -29 -230 -4 -35 19 -35 19 -17 -1 11
-13 42 -24 86 -32 62 -11 76 -10 137 7 91 26 123 31 121 19 -1 -6 32 -28 73
-49 41 -21 101 -60 132 -85 l56 -47 -18 -26 c-22 -31 -65 -117 -75 -150 -7
-24 -7 -24 18 5 60 70 78 89 74 74 -3 -9 -9 -38 -13 -64 -5 -38 -4 -46 6 -40
11 7 12 -5 7 -56 l-6 -64 33 90 c18 50 45 115 59 145 54 112 228 316 269 316
51 0 105 19 147 50 24 19 48 31 53 28 5 -3 20 2 33 10 14 9 25 14 25 11 0 -2
15 3 33 13 17 10 41 16 52 14 20 -3 60 -58 57 -78 -1 -6 9 -19 23 -28 14 -9
25 -26 25 -37 0 -11 4 -18 8 -15 4 2 14 1 22 -5 11 -6 4 -9 -22 -9 -20 0 -40
-4 -43 -10 -4 -6 8 -10 30 -10 28 0 38 -5 47 -26 11 -23 9 -28 -20 -50 -18
-14 -32 -32 -32 -40 0 -21 12 -17 35 11 14 18 26 23 42 19 14 -4 20 -11 16
-20 -3 -8 -2 -14 3 -13 24 4 31 -3 27 -28 l-4 -28 15 25 c8 14 15 20 16 13 0
-7 7 -10 15 -7 12 5 15 -3 15 -40 0 -44 -1 -46 -30 -46 -16 0 -30 5 -30 11 0
8 -4 8 -14 0 -15 -13 -56 1 -56 18 0 10 -42 23 -49 16 -2 -3 6 -16 19 -30 28
-29 19 -33 -18 -7 -15 10 -35 21 -44 25 -22 8 -39 40 -29 56 7 10 14 9 37 -5
l29 -18 -19 22 c-11 13 -31 22 -48 22 -25 0 -33 9 -29 33 1 9 -3 9 -36 -4 -29
-12 -50 -16 -95 -18 -24 -1 -26 -3 -19 -29 25 -86 111 -179 206 -223 64 -30
190 -59 253 -59 151 0 320 90 388 206 41 70 55 130 62 264 6 101 10 125 22
125 8 1 25 7 38 14 19 10 34 10 75 0 88 -21 102 -50 102 -214 -1 -172 -43
-261 -179 -370 -49 -40 -208 -132 -274 -159 -29 -12 -50 -25 -46 -28 8 -8 -34
-15 -165 -28 -197 -19 -341 -12 -778 39 -132 15 -167 22 -189 40 -32 25 -45
20 -19 -9 20 -22 20 -22 -9 -37 -16 -9 -4 -12 60 -17 170 -14 404 -38 509 -52
282 -38 567 -26 805 34 136 35 383 123 495 178 44 22 83 41 88 42 12 6 -5 -32
-21 -45 -14 -12 -14 -13 2 -13 14 0 16 -3 7 -13 -6 -8 -9 -16 -6 -19 3 -3 -4
-13 -15 -23 -11 -10 -20 -23 -20 -28 0 -6 -8 -19 -17 -29 -17 -19 -16 -19 12
-12 17 4 38 11 47 15 9 5 19 9 22 9 12 0 5 -46 -9 -64 -8 -11 -15 -29 -15 -40
0 -12 -9 -34 -20 -51 -25 -38 -80 -151 -80 -166 0 -16 -42 -90 -62 -111 -10
-10 -18 -24 -18 -30 0 -7 -7 -26 -15 -41 -8 -15 -17 -43 -21 -63 -3 -19 -10
-37 -15 -40 -5 -3 -9 -20 -9 -39 0 -19 -5 -37 -11 -40 -6 -4 -8 -13 -5 -21 3
-8 2 -14 -2 -14 -4 0 -8 -27 -8 -60 0 -34 -6 -66 -12 -72 -17 -17 -15 -26 9
-33 11 -4 19 -9 17 -11 -3 -2 -20 1 -39 7 -19 6 -70 12 -114 14 -44 2 -143 12
-220 23 -77 12 -185 23 -240 26 l-100 6 156 -25 c86 -13 223 -38 305 -56 82
-17 161 -34 177 -36 15 -3 27 -9 27 -13 0 -5 10 -6 23 -3 13 3 17 1 10 -4 -11
-8 -17 -123 -10 -205 1 -21 -1 -38 -5 -38 -4 0 -7 -33 -6 -72 2 -59 -2 -81
-21 -117 -17 -32 -22 -56 -19 -92 1 -27 0 -49 -3 -49 -10 0 -16 -70 -8 -76 11
-7 2 -101 -15 -163 -9 -29 -13 -58 -10 -62 9 -15 -15 -10 -57 12 -23 11 -43
18 -47 15 -7 -8 -33 14 -27 24 3 4 -9 13 -25 20 -17 7 -30 18 -30 24 0 8 -2 8
-8 0 -13 -20 -44 -11 -126 33 -150 81 -438 224 -442 220 -3 -2 64 -40 148 -82
204 -105 486 -277 549 -337 15 -14 35 -28 45 -33 14 -5 15 -9 5 -12 -11 -5
-11 -7 0 -14 10 -6 9 -12 -6 -30 -11 -12 -14 -19 -6 -14 12 7 13 -1 6 -46 -4
-30 -7 -61 -8 -69 0 -8 -3 -19 -7 -25 -5 -5 -11 -31 -15 -58 -4 -26 -11 -50
-16 -53 -5 -3 -9 -13 -9 -23 0 -10 -6 -24 -14 -30 -8 -7 -12 -21 -9 -32 3 -11
-2 -28 -12 -39 -10 -11 -13 -20 -7 -20 7 0 7 -11 -1 -36 -7 -22 -7 -38 -1 -42
18 -13 34 -57 30 -80 -3 -12 -30 -50 -60 -84 -31 -34 -56 -67 -56 -73 0 -7 -9
-20 -21 -31 -11 -10 -18 -26 -16 -35 2 -9 0 -24 -5 -33 -9 -16 -11 -16 -23 1
-13 16 -13 16 -8 -7 3 -14 9 -27 12 -30 12 -10 32 -52 22 -45 -6 3 -11 1 -11
-6 0 -7 -6 -4 -14 6 -8 11 -12 23 -10 27 3 5 0 8 -7 8 -7 0 -9 3 -6 6 4 4 -2
19 -12 33 -9 14 -28 46 -40 71 -33 64 -70 111 -83 104 -6 -4 -8 -3 -5 2 3 5
-4 21 -15 34 -11 14 -16 19 -12 11 5 -9 3 -12 -4 -7 -7 4 -12 13 -12 21 0 8
-5 17 -12 21 -6 4 -9 3 -5 -2 3 -5 -49 45 -116 111 -103 102 -226 211 -311
275 -11 8 63 -68 165 -170 102 -102 231 -243 287 -315 56 -71 110 -139 118
-150 9 -11 28 -38 42 -60 15 -22 32 -44 39 -48 7 -4 13 -15 13 -23 0 -9 -5
-12 -12 -8 -8 5 -9 2 -5 -10 4 -10 3 -15 -3 -11 -6 3 -10 1 -10 -6 0 -13 -46
-70 -125 -159 -170 -190 -451 -455 -870 -820 -548 -477 -646 -552 -826 -625
-150 -61 -185 -67 -423 -72 -347 -8 -927 24 -1111 62 -99 21 -142 41 -278 132
-236 159 -463 348 -718 599 -75 74 -140 134 -145 135 -5 0 -20 2 -33 3 -14 2
-37 18 -53 37 -20 24 -28 28 -28 16 0 -9 19 -35 42 -58 46 -45 98 -84 98 -74
0 11 48 -31 203 -178 84 -79 172 -161 197 -183 24 -21 54 -47 65 -57 11 -10
73 -61 138 -114 64 -52 117 -96 117 -97 0 -1 -13 -1 -30 2 -16 2 -30 8 -30 12
0 5 -8 6 -18 3 -10 -2 -41 7 -70 20 -45 21 -59 23 -90 15 -117 -31 -154 -18
-215 79 -39 62 -45 67 -137 112 -53 27 -126 59 -162 72 -37 13 -64 27 -62 31
3 4 -1 5 -9 2 -8 -3 -18 -1 -22 5 -3 6 -13 11 -21 11 -23 0 -107 40 -126 60
-9 10 -20 34 -23 54 -4 20 -10 34 -14 32 -4 -3 -7 12 -6 32 0 42 -20 92 -37
92 -13 0 -48 39 -48 54 0 6 9 41 19 78 13 46 29 76 48 93 33 29 50 31 81 9 32
-22 30 5 -2 35 -14 13 -30 37 -37 54 -7 18 -39 67 -72 109 -56 74 -60 77 -98
75 -47 -2 -72 24 -63 65 5 23 1 30 -20 38 -27 10 -51 53 -42 77 3 7 -16 41
-43 76 -232 307 -383 578 -593 1062 -55 126 -108 248 -118 270 -88 196 -153
360 -215 548 -103 311 -157 501 -153 545 3 35 4 33 31 -43 15 -44 25 -65 22
-48 -20 133 -46 431 -53 598 -8 208 -6 227 36 275 7 8 27 35 44 59 28 38 33
41 43 27 20 -26 25 -19 25 37 0 32 6 61 16 75 11 16 15 39 12 71 -4 59 13 81
35 48 22 -35 150 -156 170 -163 9 -3 14 -10 11 -16 -4 -6 -2 -8 4 -4 6 3 39
-13 74 -36 73 -49 209 -110 323 -144 44 -14 92 -29 108 -33 19 -7 25 -6 20 2
-4 7 0 8 13 2 134 -55 248 -80 439 -96 179 -15 440 -6 615 20 74 12 180 25
235 31 55 6 123 17 150 24 46 13 47 14 17 15 -30 1 -33 3 -26 24 l6 22 -24
-22 c-19 -18 -48 -26 -132 -38 -59 -8 -146 -22 -192 -30 -235 -41 -691 -38
-859 5 -167 43 -332 118 -373 171 -13 16 -40 68 -59 115 -74 182 -111 403 -80
474 l15 35 1 -45 c2 -70 29 -228 52 -298 12 -35 22 -62 24 -60 1 2 -6 44 -17
93 -12 55 -20 137 -21 212 -2 142 4 157 91 205 50 29 70 34 177 43 75 7 198
25 203 29 5 6 67 -3 119 -16z m91 -129 c3 -17 -43 -43 -59 -34 -11 7 -12 39
-2 49 13 12 58 2 61 -15z m4217 -68 c3 -6 -3 -15 -14 -20 -27 -15 -31 -14 -31
9 0 21 33 29 45 11z m-6155 -201 c31 -110 104 -324 157 -459 13 -35 33 -96 44
-135 10 -39 30 -106 44 -150 13 -43 22 -76 19 -73 -11 11 -156 317 -183 387
-40 102 -101 313 -101 347 0 16 -4 42 -9 58 -4 17 -11 66 -14 110 -7 91 -3 84
43 -85z m1999 111 c-15 -5 -22 6 -14 19 6 9 10 9 16 -1 5 -8 4 -15 -2 -18z
m216 -256 c17 0 17 -42 0 -49 -25 -9 -35 1 -35 35 0 22 4 28 13 22 6 -4 17 -8
22 -8z m79 -10 c3 -8 1 -15 -4 -15 -6 0 -10 7 -10 15 0 8 2 15 4 15 2 0 6 -7
10 -15z m-364 -163 c3 -3 -9 2 -26 11 -29 15 -104 89 -104 104 0 3 28 -20 63
-52 34 -33 64 -61 67 -63z m4631 105 c-1 -12 -15 -9 -19 4 -3 6 1 10 8 8 6 -3
11 -8 11 -12z m-116 -28 c0 -17 -6 -25 -22 -27 -20 -3 -23 1 -23 27 0 26 3 30
23 27 16 -2 22 -10 22 -27z m75 -1 c0 -5 -4 -8 -10 -8 -5 0 -10 10 -10 23 0
18 2 19 10 7 5 -8 10 -18 10 -22z m-351 -145 c2 -2 -1 -3 -7 -3 -19 0 -93 64
-115 100 -18 30 -10 25 49 -30 38 -35 71 -65 73 -67z m-6687 -10 c24 -16 37
-32 33 -40 -4 -11 1 -13 17 -7 17 5 20 3 15 -10 -4 -9 -2 -16 3 -16 6 0 11 8
11 18 1 16 2 16 6 0 2 -10 9 -18 14 -18 5 0 9 -6 9 -14 0 -7 43 -102 95 -209
94 -194 181 -349 235 -417 15 -19 50 -68 78 -109 58 -84 58 -80 11 -226 -35
-112 -41 -145 -26 -142 7 1 12 -5 12 -13 0 -8 4 -18 9 -21 8 -6 -3 -48 -54
-199 -35 -102 -53 -144 -65 -155 -7 -5 -10 -16 -8 -22 3 -7 1 -13 -4 -13 -4 0
-14 -12 -20 -28 -7 -15 -27 -36 -44 -46 -17 -10 -28 -20 -25 -23 3 -3 36 12
73 34 37 23 100 57 138 77 115 59 162 89 210 134 59 54 95 70 111 47 9 -12 13
-13 18 -3 3 7 4 -12 1 -43 -11 -124 -98 -513 -160 -714 -47 -154 -68 -321 -51
-403 6 -27 5 -59 -1 -87 -9 -38 -8 -44 8 -48 20 -5 75 65 64 82 -3 6 10 43 30
83 36 72 54 100 42 66 -11 -32 1 -19 47 52 26 39 51 70 58 70 7 0 9 -21 6 -67
-3 -38 -3 -58 -1 -45 3 12 8 20 13 17 4 -3 8 1 7 8 -1 29 4 47 12 47 4 0 7
-12 4 -27 -2 -22 -1 -24 5 -9 7 17 9 17 24 2 9 -9 21 -16 26 -16 6 0 10 -21
10 -47 0 -27 5 -66 11 -88 8 -31 7 -59 -5 -125 -21 -122 -46 -223 -55 -234
-13 -15 -11 -28 3 -20 6 4 -1 -9 -17 -30 -21 -27 -25 -40 -17 -48 8 -8 9 -15
1 -25 -9 -9 -8 -17 1 -28 11 -13 9 -20 -10 -40 -13 -14 -20 -25 -16 -25 9 0
124 79 228 157 43 32 94 68 113 81 39 23 71 30 59 11 -3 -6 -1 -15 7 -19 10
-7 9 -27 -5 -112 -10 -57 -21 -139 -26 -183 -4 -44 -11 -91 -14 -105 -12 -52
-15 -301 -3 -297 6 2 14 14 18 28 7 23 7 23 8 2 1 -13 7 -23 15 -23 33 0 35
-95 4 -126 -5 -4 -8 -41 -8 -83 1 -74 1 -75 14 -40 7 20 18 63 25 96 8 36 23
71 37 86 13 15 24 32 24 38 0 7 3 10 6 6 4 -3 14 3 23 15 17 21 17 21 31 -11
14 -36 8 -225 -11 -294 -10 -37 -36 -77 -51 -77 -4 0 -32 -11 -62 -25 -30 -14
-65 -25 -78 -25 -13 -1 -39 -10 -58 -20 -19 -11 -55 -29 -80 -40 -25 -12 -110
-53 -190 -92 -80 -39 -154 -74 -165 -78 -11 -4 -74 -32 -140 -63 -66 -30 -169
-74 -230 -97 -60 -22 -117 -44 -125 -49 -9 -5 -31 -12 -50 -16 -19 -4 -40 -11
-46 -16 -6 -5 -30 -11 -55 -13 -24 -3 -77 -12 -118 -21 -41 -8 -113 -17 -161
-18 -47 -2 -91 -6 -96 -9 -31 -19 -185 -37 -379 -43 -124 -5 -180 -10 -245
-25 -25 -5 -90 -19 -145 -30 -130 -26 -203 -44 -295 -70 -41 -11 -91 -25 -110
-30 -206 -52 -415 -116 -460 -139 -19 -11 -51 -22 -70 -26 -84 -17 -333 -105
-354 -126 -6 -5 -20 -9 -33 -9 -13 0 -23 -4 -23 -10 0 -5 -12 -13 -26 -16 -14
-4 -53 -20 -85 -35 -33 -16 -64 -29 -69 -29 -6 0 -10 -4 -10 -9 0 -5 -11 -11
-24 -15 -13 -3 -79 -32 -147 -64 -149 -71 -217 -102 -224 -102 -4 0 -29 -11
-140 -60 -11 -5 -60 -25 -110 -45 -143 -58 -344 -155 -420 -201 -22 -13 -47
-27 -55 -31 -8 -4 -23 -15 -34 -24 -10 -10 -31 -21 -47 -24 -15 -3 -30 -13
-33 -21 -7 -18 -60 -18 -76 0 -6 8 -21 16 -32 18 -33 5 -57 72 -63 173 -2 33
-7 88 -11 122 -10 92 13 280 38 307 12 14 18 31 15 48 -2 16 -1 26 1 23 9 -9
42 55 42 83 0 41 11 72 25 72 6 0 18 18 25 40 7 22 16 40 19 40 3 0 7 37 8 82
2 74 17 146 32 158 6 5 25 65 40 130 5 19 18 54 30 77 11 23 21 54 21 68 0 14
5 25 10 25 6 0 10 14 10 30 0 20 5 30 15 30 8 0 15 5 15 10 0 6 -4 10 -10 10
-5 0 -10 5 -10 10 0 6 11 10 24 10 20 0 25 6 31 40 4 22 13 47 21 54 8 8 14
24 14 35 0 11 9 25 20 31 11 6 20 20 20 32 0 11 8 27 18 34 16 13 16 13 0 14
-25 0 -23 20 2 20 14 0 20 7 20 23 0 12 9 33 20 47 11 14 20 29 20 33 0 12 27
37 39 37 6 0 11 5 11 12 0 15 80 88 97 88 7 0 13 6 13 13 1 12 66 47 88 47 7
0 12 5 12 10 0 6 9 10 19 10 11 0 26 7 35 15 8 8 18 15 22 15 4 0 16 7 25 16
16 14 23 15 51 4 18 -7 41 -20 50 -28 31 -26 211 -14 236 17 10 12 15 13 18 4
9 -20 31 -15 52 12 11 14 27 25 36 25 9 0 16 5 16 10 0 6 5 10 11 10 7 0 34
16 60 35 27 19 53 35 57 35 4 0 23 11 42 25 19 14 28 25 21 25 -7 0 -9 5 -6
10 3 6 17 10 30 10 13 0 27 5 30 10 3 6 17 10 31 10 17 0 24 5 24 20 0 11 6
20 13 20 29 0 66 26 69 49 2 17 13 27 38 35 23 7 36 18 38 32 3 24 73 55 80
35 2 -7 8 -6 18 3 16 17 20 106 4 106 -11 0 -18 -5 -100 -80 -30 -27 -59 -50
-64 -50 -4 0 -17 -11 -28 -25 -16 -21 -27 -25 -61 -23 -30 2 -43 8 -45 21 -2
11 3 17 14 17 24 0 54 29 47 46 -7 18 24 83 43 91 8 3 14 12 14 20 0 9 8 22
18 29 16 13 16 13 -3 14 -18 1 -18 2 3 10 12 5 22 16 22 24 0 18 101 126 118
126 6 0 14 9 17 21 5 16 10 18 21 8 8 -6 14 -8 14 -3 0 5 7 0 15 -10 9 -11 15
-14 15 -7 0 9 3 9 14 -2 18 -17 17 -87 -1 -87 -7 0 -13 -7 -13 -15 0 -8 -4
-15 -10 -15 -15 0 -12 -19 4 -36 19 -18 22 -18 45 5 14 14 16 21 8 25 -7 2 5
5 26 5 20 1 37 -3 37 -9 0 -5 12 -10 28 -10 15 0 33 -4 41 -9 15 -10 61 6 61
21 0 4 5 8 11 8 5 0 8 -4 5 -9 -9 -14 24 -22 42 -11 10 5 13 10 9 10 -5 0 -1
7 8 16 9 9 25 14 35 11 26 -7 28 -1 31 59 2 45 13 107 37 194 5 19 18 71 27
115 10 44 22 84 26 89 5 6 9 16 9 24 0 25 86 196 108 216 12 11 22 25 22 31 0
7 6 18 14 24 18 15 67 119 71 148 1 12 -6 35 -16 50 -11 15 -19 37 -19 48 0
11 -14 48 -32 82 -31 59 -31 63 -18 103 13 40 88 130 109 130 6 0 15 8 20 19
6 10 21 21 35 25 14 3 26 16 30 31 3 13 17 35 30 48 21 21 43 66 36 75 -1 2 9
16 22 30 13 15 30 40 38 56 8 16 26 36 40 45 33 21 53 46 81 100 13 25 31 52
39 61 8 9 24 29 35 44 11 16 28 36 37 44 9 9 15 19 12 24 -3 4 2 11 10 14 9 3
16 11 16 18 0 6 18 31 40 56 22 24 40 50 40 56 0 7 10 14 23 16 12 2 23 9 23
16 1 6 2 17 3 22 0 6 7 10 14 10 6 0 25 16 41 35 16 19 35 35 42 35 12 0 94
75 94 86 0 10 55 53 68 54 6 0 12 3 12 8 0 4 18 18 40 32 22 14 40 28 40 32 0
4 26 33 57 64 31 31 58 66 60 77 2 12 12 34 22 48 12 15 16 31 11 39 -4 7 -4
27 1 44 5 17 9 46 9 64 0 18 5 42 10 53 8 13 7 25 0 40 -9 16 -8 24 4 38 9 10
16 22 16 27 0 19 62 74 83 74 12 0 38 -12 59 -27z m8159 -173 c26 -14 24 -39
-3 -49 -29 -11 -58 4 -58 29 0 27 28 37 61 20z m-193 -49 c3 -8 -1 -12 -9 -9
-7 2 -15 10 -17 17 -3 8 1 12 9 9 7 -2 15 -10 17 -17z m-62 -385 c-4 -16 0
-29 14 -41 11 -10 20 -26 20 -37 0 -23 -54 -25 -105 -4 -50 21 -46 65 5 73 8
1 19 9 25 17 5 9 18 16 29 16 14 0 17 -5 12 -24z m394 -296 c0 -7 6 -7 19 -1
16 9 20 7 25 -14 14 -56 -53 -114 -88 -76 -17 19 -14 38 12 79 15 23 32 29 32
12z m-250 -10 c0 -5 -4 -10 -10 -10 -5 0 -10 5 -10 10 0 6 5 10 10 10 6 0 10
-4 10 -10z m80 -275 c9 -11 7 -25 -14 -70 -26 -58 -38 -64 -74 -39 -26 18 -19
38 31 92 35 36 40 38 57 17z m-366 -16 c32 -15 23 -39 -14 -39 -28 0 -42 12
-46 38 -3 15 27 16 60 1z m-7158 -84 c16 -13 17 -16 4 -25 -23 -15 -45 -7 -48
18 -4 26 15 29 44 7z m7459 -36 c7 -7 3 -15 -10 -25 -28 -21 -50 -13 -53 20
-3 27 -2 28 25 22 15 -4 33 -12 38 -17z m-348 -215 c5 -15 -20 -24 -37 -14 -7
4 -9 13 -5 19 8 14 37 11 42 -5z m183 -111 c48 -61 0 -153 -78 -153 -49 0 -57
7 -71 63 -12 51 -9 67 15 67 8 0 17 7 21 16 15 39 84 43 113 7z m833 -177 c22
-17 22 -44 0 -68 -20 -23 -52 -23 -69 0 -18 23 -17 42 3 64 19 21 41 23 66 4z
m-11629 -147 c-4 -7 5 -10 27 -9 19 1 39 1 44 0 6 -1 19 -3 30 -4 16 -1 20
-10 22 -55 2 -30 8 -61 13 -70 9 -18 -16 -41 -46 -41 -8 0 -33 -18 -54 -40
-21 -22 -43 -40 -49 -40 -6 0 -11 -14 -11 -30 0 -32 -9 -39 -55 -44 -34 -4
-44 -21 -37 -69 4 -32 8 -38 23 -34 24 6 24 11 -6 -88 -29 -94 -50 -115 -115
-115 l-40 0 0 43 c0 37 5 46 42 79 38 33 40 37 21 38 -13 0 -23 -5 -23 -10 0
-6 -8 -14 -17 -17 -10 -4 -29 -15 -42 -25 -13 -10 -39 -18 -58 -18 -23 0 -36
-6 -40 -17 -20 -52 -54 -56 -71 -9 -28 76 14 266 66 299 6 4 12 15 12 23 0 22
161 178 200 194 19 8 39 20 43 27 4 7 16 13 26 13 10 0 34 7 52 15 41 17 52
18 43 4z m10249 -3 c4 -10 1 -13 -8 -9 -8 3 -12 9 -9 14 7 12 11 11 17 -5z
m69 -48 c15 -7 30 -19 33 -27 4 -10 -2 -9 -22 4 -71 46 -75 55 -11 23z m-9952
-99 c0 -17 -5 -39 -10 -50 -9 -16 -7 -21 13 -28 44 -17 47 -51 15 -155 -19
-60 -29 -76 -60 -99 -58 -41 -104 -33 -133 23 -21 41 -19 86 5 110 12 12 18
25 15 30 -3 5 3 11 14 15 10 3 21 15 24 26 5 17 3 18 -11 7 -35 -26 -72 -70
-72 -85 0 -13 -3 -13 -16 -2 -22 18 -9 58 29 91 18 15 26 27 19 28 -7 0 -10 4
-7 10 3 5 17 9 30 8 18 -2 21 -5 13 -15 -7 -9 -7 -13 0 -13 6 0 19 11 29 25
33 47 85 105 94 105 5 0 9 -14 9 -31z m-220 -239 c0 -5 -5 -10 -11 -10 -5 0
-7 5 -4 10 3 6 8 10 11 10 2 0 4 -4 4 -10z m958 -338 c4 -40 -46 -97 -103
-116 -49 -17 -55 -14 -54 27 1 53 24 101 58 124 29 20 36 21 64 9 25 -10 33
-19 35 -44z m8796 -988 c13 -34 4 -55 -51 -118 -85 -97 -103 -86 -62 39 21 67
47 95 85 95 12 0 25 -7 28 -16z m-10591 -21 c-3 -10 -12 -27 -20 -38 -13 -19
-13 -19 -13 2 0 12 7 29 16 37 20 21 25 20 17 -1z m10335 -88 c-9 -19 -8 -29
6 -50 9 -14 20 -25 25 -25 5 0 12 -7 15 -16 3 -8 2 -12 -4 -9 -18 11 -11 -11
9 -29 11 -10 24 -15 29 -12 10 6 22 -39 22 -84 0 -16 -5 -30 -11 -32 -6 -2
-12 -18 -14 -36 -1 -18 -8 -38 -14 -46 -6 -8 -10 -18 -9 -24 2 -5 -9 -21 -24
-35 -16 -14 -28 -21 -28 -15 0 6 -3 9 -6 6 -3 -4 -6 -10 -6 -15 1 -4 -5 -15
-13 -23 -7 -8 -15 -24 -17 -35 -2 -11 -10 -19 -17 -17 -9 2 -12 -4 -8 -18 3
-11 1 -36 -4 -54 l-9 -34 -53 14 c-108 29 -195 13 -399 -75 -53 -22 -99 -41
-101 -41 -2 0 -4 7 -4 15 0 8 5 15 11 15 5 0 2 6 -9 13 -17 13 -17 15 5 30
l23 16 -24 20 c-22 19 -17 27 14 22 5 -1 6 3 2 9 -4 6 -16 8 -27 4 -18 -5 -19
-4 -7 9 8 8 17 13 22 10 4 -2 7 0 7 5 0 16 42 53 56 48 8 -3 11 0 8 8 -3 8 7
24 23 36 15 12 48 40 73 63 25 23 65 60 90 81 25 22 83 74 130 116 124 111
238 208 247 210 2 0 -2 -11 -9 -25z m-678 -600 c0 -9 -9 -15 -22 -15 -22 1
-23 1 -4 15 25 19 26 19 26 0z m-6425 -275 c-16 -4 -46 -8 -65 -8 -28 -1 -31
1 -15 8 11 5 40 8 65 8 41 0 42 -1 15 -8z m230 -10 c11 -17 -5 -32 -21 -19 -7
6 -11 15 -8 20 7 12 21 11 29 -1z m-385 -10 c-14 -4 -34 -8 -45 -8 l-20 -1 20
9 c11 5 31 8 45 8 l25 0 -25 -8z m1270 -155 c0 -18 -33 -65 -45 -65 -19 0 -19
20 1 48 13 19 44 31 44 17z m-900 -325 c0 -5 -7 -10 -15 -10 -8 0 -15 5 -15
10 0 6 7 10 15 10 8 0 15 -4 15 -10z m1069 -6 c37 -19 71 -68 71 -103 0 -34
-48 -117 -77 -132 -40 -22 -122 -18 -139 5 -36 51 5 174 73 221 21 14 38 25
39 25 0 0 16 -7 33 -16z m144 -120 c9 -10 -4 -34 -19 -34 -8 0 -14 6 -14 13 0
22 19 35 33 21z m-4343 -249 c-25 -13 -49 -24 -55 -24 -5 0 10 11 35 24 25 13
50 24 55 24 6 0 -10 -11 -35 -24z"/>
<path d="M12630 9713 c0 -13 -14 -33 -35 -49 -27 -21 -35 -33 -35 -59 0 -23
-9 -41 -32 -64 -17 -17 -36 -31 -40 -31 -5 0 -17 -17 -26 -37 -10 -21 -25 -49
-34 -63 -24 -38 -32 -70 -16 -70 7 0 24 21 38 47 14 26 43 69 65 94 103 119
126 150 120 159 -4 6 1 22 10 37 16 23 16 27 1 41 -15 15 -16 14 -16 -5z"/>
<path d="M11545 9801 c-3 -5 -1 -12 5 -16 12 -7 30 2 30 16 0 12 -27 12 -35 0z"/>
<path d="M10657 8911 c-42 -47 -70 -98 -62 -111 3 -6 -2 -10 -11 -10 -14 0
-15 -3 -7 -11 9 -9 16 -8 28 4 9 9 15 19 15 22 -1 4 1 9 4 13 3 3 6 0 6 -7 0
-7 5 -9 11 -6 6 4 8 14 5 22 -3 8 -1 11 5 8 15 -10 39 14 32 32 -4 11 -2 14 5
9 8 -4 12 0 12 11 0 10 3 28 6 41 9 33 -9 27 -49 -17z"/>
<path d="M10206 8657 c-11 -36 0 -46 22 -22 9 10 12 15 5 11 -7 -4 -13 3 -15
16 -4 22 -5 21 -12 -5z"/>
<path d="M10133 8464 c-10 -28 13 -37 25 -9 10 21 9 25 -4 25 -8 0 -17 -7 -21
-16z"/>
<path d="M9936 8391 c-14 -15 -23 -30 -20 -34 10 -9 42 10 54 33 16 31 -5 32
-34 1z"/>
<path d="M10235 8390 c3 -5 8 -10 11 -10 2 0 4 5 4 10 0 6 -5 10 -11 10 -5 0
-7 -4 -4 -10z"/>
<path d="M10200 8360 c0 -5 5 -10 10 -10 6 0 10 5 10 10 0 6 -4 10 -10 10 -5
0 -10 -4 -10 -10z"/>
<path d="M10073 8334 c-6 -13 -7 -24 -3 -24 9 0 25 39 18 45 -2 2 -8 -7 -15
-21z"/>
<path d="M9872 8231 c-7 -19 -6 -41 1 -70 14 -51 22 -52 24 -3 1 28 -1 32 -7
17 -6 -15 -9 -9 -9 25 -1 33 2 41 9 30 8 -12 10 -11 10 8 0 31 -16 28 -28 -7z"/>
<path d="M9986 8163 c-6 -14 -5 -15 5 -6 7 7 10 15 7 18 -3 3 -9 -2 -12 -12z"/>
<path d="M8885 7990 c-3 -6 1 -7 9 -4 18 7 21 14 7 14 -6 0 -13 -4 -16 -10z"/>
<path d="M9780 7760 c-9 -6 -10 -10 -3 -10 6 0 15 5 18 10 8 12 4 12 -15 0z"/>
<path d="M9157 7638 c-3 -13 -9 -56 -13 -96 -3 -40 -11 -75 -15 -78 -13 -7
-11 -44 2 -44 5 0 8 4 5 8 -3 5 1 26 8 48 8 21 17 72 20 112 7 71 3 94 -7 50z"/>
<path d="M9141 6978 c-40 -102 -54 -185 -47 -293 3 -55 10 -116 15 -135 6 -24
7 -2 3 66 -6 117 11 275 39 353 24 71 18 77 -10 9z"/>
<path d="M9121 6494 c0 -11 3 -14 6 -6 3 7 2 16 -1 19 -3 4 -6 -2 -5 -13z"/>
<path d="M9170 6371 c0 -6 4 -13 10 -16 6 -3 7 1 4 9 -7 18 -14 21 -14 7z"/>
<path d="M9200 6326 c0 -2 8 -10 18 -17 15 -13 16 -12 3 4 -13 16 -21 21 -21
13z"/>
<path d="M9300 6217 c0 -2 15 -16 33 -33 l32 -29 -29 33 c-28 30 -36 37 -36
29z"/>
<path d="M9380 6126 c0 -2 8 -10 18 -17 15 -13 16 -12 3 4 -13 16 -21 21 -21
13z"/>
<path d="M9444 5811 c39 -43 155 -52 202 -16 17 13 15 13 -16 5 -55 -16 -117
-12 -162 10 -37 18 -39 18 -24 1z"/>
<path d="M8303 8774 c-1 -23 2 -34 10 -31 17 5 20 30 5 50 -12 15 -13 13 -15
-19z"/>
<path d="M13208 8453 c7 -3 16 -2 19 1 4 3 -2 6 -13 5 -11 0 -14 -3 -6 -6z"/>
<path d="M13965 8340 c-3 -5 -1 -10 4 -10 6 0 11 5 11 10 0 6 -2 10 -4 10 -3
0 -8 -4 -11 -10z"/>
<path d="M14575 8283 c-43 -10 -32 -19 25 -18 32 0 56 3 52 6 -11 10 -55 17
-77 12z"/>
<path d="M12495 8270 c-3 -5 3 -10 14 -10 12 0 21 5 21 10 0 6 -6 10 -14 10
-8 0 -18 -4 -21 -10z"/>
<path d="M14501 8238 c-12 -19 -11 -23 5 -35 21 -15 88 -18 79 -3 -3 6 -17 10
-31 10 -20 0 -25 4 -22 22 4 29 -14 33 -31 6z"/>
<path d="M14657 8230 c-9 -11 -13 -20 -7 -20 5 0 14 9 20 20 6 11 9 20 8 20
-2 0 -11 -9 -21 -20z"/>
<path d="M12613 8063 c15 -2 37 -2 50 0 12 2 0 4 -28 4 -27 0 -38 -2 -22 -4z"/>
<path d="M13732 8038 c3 -7 13 -15 22 -16 12 -3 17 1 14 10 -3 7 -13 15 -22
16 -12 3 -17 -1 -14 -10z"/>
<path d="M11578 8193 c7 -3 16 -2 19 1 4 3 -2 6 -13 5 -11 0 -14 -3 -6 -6z"/>
<path d="M15005 7060 c-3 -6 1 -7 9 -4 18 7 21 14 7 14 -6 0 -13 -4 -16 -10z"/>
<path d="M12913 6713 c25 -28 119 -81 157 -88 46 -9 43 -7 -74 54 -55 28 -92
43 -83 34z"/>
<path d="M11328 6713 c7 -3 16 -2 19 1 4 3 -2 6 -13 5 -11 0 -14 -3 -6 -6z"/>
<path d="M13159 6603 c-102 -104 -101 -109 3 -26 59 47 107 107 96 119 -2 2
-47 -40 -99 -93z"/>
<path d="M11398 6653 c-21 -8 -38 -19 -38 -24 0 -5 18 0 40 11 22 11 40 23 40
25 0 6 2 7 -42 -12z"/>
<path d="M15600 6570 c-32 -25 -15 -25 30 0 26 14 30 19 15 19 -11 0 -31 -8
-45 -19z"/>
<path d="M10730 6455 c0 -5 5 -17 10 -25 5 -8 10 -10 10 -5 0 6 -5 17 -10 25
-5 8 -10 11 -10 5z"/>
<path d="M14229 6308 c-63 -78 -119 -153 -126 -167 -7 -14 -12 -57 -12 -96 l0
-70 17 81 c19 90 26 101 129 231 69 87 121 163 110 163 -2 0 -56 -64 -118
-142z"/>
<path d="M15508 6054 c6 -3 12 -9 12 -14 0 -5 -6 -10 -12 -13 -7 -2 -4 -3 7
-1 11 2 34 4 50 4 25 1 27 3 10 9 -23 9 -86 23 -67 15z"/>
<path d="M11150 5369 c-19 -5 -98 -26 -175 -46 -239 -62 -557 -176 -675 -244
-51 -29 -10 -16 150 46 197 77 429 158 555 194 61 17 133 37 160 45 28 8 43
14 35 14 -8 0 -31 -4 -50 -9z"/>
<path d="M11209 4561 c-131 -65 -242 -133 -474 -290 -100 -67 -184 -129 -210
-154 -16 -16 8 0 225 144 226 150 383 245 505 308 90 46 115 61 100 60 -5 0
-71 -30 -146 -68z"/>
<path d="M13885 3877 c-55 -32 -91 -60 -93 -72 -4 -16 0 -15 27 7 45 38 146
98 165 98 10 0 14 5 11 10 -9 15 -13 14 -110 -43z"/>
<path d="M13155 3906 c65 -16 109 -39 168 -88 26 -21 47 -33 47 -26 -1 16 -75
76 -132 105 -27 14 -60 22 -88 22 l-45 -1 50 -12z"/>
<path d="M11583 3761 c-117 -94 -361 -341 -498 -506 -89 -106 -80 -103 26 10
145 155 485 495 539 538 25 20 42 37 38 37 -4 0 -51 -35 -105 -79z"/>
<path d="M13720 3040 c-91 -4 -293 -8 -451 -9 -291 -1 -479 -12 -649 -36 l-95
-14 75 4 c267 17 618 25 1115 28 585 2 669 -2 909 -44 32 -6 60 -8 62 -6 5 5
-177 44 -296 64 -103 17 -445 23 -670 13z"/>
<path d="M12483 2973 c9 -2 23 -2 30 0 6 3 -1 5 -18 5 -16 0 -22 -2 -12 -5z"/>
<path d="M9664 3718 l-19 -23 23 19 c12 11 22 21 22 23 0 8 -8 2 -26 -19z"/>
<path d="M9615 3679 c-11 -17 1 -21 15 -4 8 9 8 15 2 15 -6 0 -14 -5 -17 -11z"/>
<path d="M9495 3388 c-20 -64 -24 -89 -16 -108 l10 -25 0 23 c1 13 10 60 22
104 11 44 18 83 15 85 -3 3 -16 -33 -31 -79z"/>
<path d="M6840 3248 c0 -25 3 -29 10 -18 13 20 13 50 0 50 -5 0 -10 -15 -10
-32z"/>
<path d="M5825 3887 c-4 -10 -5 -21 -1 -24 10 -10 18 4 13 24 -4 17 -4 17 -12
0z"/>
</g>
</svg>
